<svg xmlns="http://www.w3.org/2000/svg" viewBox="0 0 390 844">
  <defs>
    <radialGradient id="topGlow" cx="50%" cy="0%" r="60%">
      <stop offset="0%" stop-color="#8B5CF6" stop-opacity="0.15"/>
      <stop offset="100%" stop-color="#0D0D0D" stop-opacity="0"/>
    </radialGradient>
  </defs>

  <!-- Background -->
  <rect width="390" height="844" fill="#0D0D0D"/>
  <rect width="390" height="844" fill="url(#topGlow)"/>

  <!-- Status bar -->
  <rect width="390" height="44" fill="#0D0D0D"/>
  <text x="20" y="30" fill="white" font-size="13" font-weight="600" font-family="sans-serif">9:41</text>
  <rect x="318" y="20" width="42" height="12" rx="3" fill="none" stroke="white" stroke-width="1.5"/>
  <rect x="319" y="21" width="28" height="10" rx="2" fill="white"/>
  <rect x="361" y="23" width="3" height="6" rx="1" fill="white"/>

  <!-- ── HEADLINE OVERLAY ── -->
  <rect width="390" height="170" fill="#0D0D0D"/>
  <text x="20" y="78" fill="white" font-size="28" font-weight="800" font-family="sans-serif">Find any artist.</text>
  <text x="20" y="110" fill="white" font-size="28" font-weight="800" font-family="sans-serif">Any festival. Any night.</text>
  <text x="20" y="145" fill="#A78BFA" font-size="13" font-family="sans-serif">Search by artist, festival, city or date.</text>

  <!-- ── APP UI ── -->

  <!-- Page title -->
  <text x="20" y="198" fill="white" font-size="22" font-weight="800" font-family="sans-serif">Search</text>

  <!-- Search bar (focused, with query) -->
  <rect x="16" y="210" width="358" height="44" rx="12" fill="#161616" stroke="#8B5CF6" stroke-width="1.5"/>
  <!-- Search icon -->
  <circle cx="40" cy="232" r="8" fill="none" stroke="#8B5CF6" stroke-width="2"/>
  <line x1="46" y1="238" x2="52" y2="244" stroke="#8B5CF6" stroke-width="2" stroke-linecap="round"/>
  <!-- Query text -->
  <text x="60" y="237" fill="white" font-size="15" font-family="sans-serif">Tame Impala</text>
  <!-- Cursor -->
  <rect x="164" y="222" width="2" height="20" fill="#8B5CF6"/>
  <!-- Clear button -->
  <circle cx="354" cy="232" r="10" fill="#333333"/>
  <text x="349" y="237" fill="#AAAAAA" font-size="14" font-family="sans-serif">✕</text>

  <!-- ── SEARCH RESULTS ── -->
  <text x="20" y="278" fill="#AAAAAA" font-size="11" font-weight="600" font-family="sans-serif" letter-spacing="2">CLIPS — 14 RESULTS</text>

  <!-- Result row 1 -->
  <rect x="16" y="290" width="358" height="72" rx="10" fill="#161616"/>
  <rect x="16" y="290" width="100" height="72" rx="8" fill="#1a1228"/>
  <ellipse cx="66" cy="326" rx="35" ry="20" fill="#8B5CF6" fill-opacity="0.3"/>
  <circle cx="66" cy="326" r="13" fill="rgba(0,0,0,0.5)"/>
  <polygon points="62,320 62,332 72,326" fill="white"/>
  <text x="128" y="317" fill="white" font-size="14" font-weight="700" font-family="sans-serif">Tame Impala</text>
  <text x="128" y="336" fill="#8B5CF6" font-size="12" font-family="sans-serif">Laneway Festival · Sydney</text>
  <text x="128" y="353" fill="#555555" font-size="11" font-family="sans-serif">2 days ago · 3:42</text>

  <!-- Result row 2 -->
  <rect x="16" y="372" width="358" height="72" rx="10" fill="#161616"/>
  <rect x="16" y="372" width="100" height="72" rx="8" fill="#120f1e"/>
  <ellipse cx="66" cy="408" rx="35" ry="20" fill="#7C3AED" fill-opacity="0.25"/>
  <circle cx="66" cy="408" r="13" fill="rgba(0,0,0,0.5)"/>
  <polygon points="62,402 62,414 72,408" fill="white"/>
  <text x="128" y="399" fill="white" font-size="14" font-weight="700" font-family="sans-serif">Tame Impala</text>
  <text x="128" y="418" fill="#8B5CF6" font-size="12" font-family="sans-serif">Coachella · Indio CA</text>
  <text x="128" y="435" fill="#555555" font-size="11" font-family="sans-serif">1 week ago · 5:18</text>

  <!-- Result row 3 -->
  <rect x="16" y="454" width="358" height="72" rx="10" fill="#161616"/>
  <rect x="16" y="454" width="100" height="72" rx="8" fill="#0f1020"/>
  <ellipse cx="66" cy="490" rx="35" ry="20" fill="#A78BFA" fill-opacity="0.2"/>
  <circle cx="66" cy="490" r="13" fill="rgba(0,0,0,0.5)"/>
  <polygon points="62,484 62,496 72,490" fill="white"/>
  <text x="128" y="481" fill="white" font-size="14" font-weight="700" font-family="sans-serif">Tame Impala</text>
  <text x="128" y="500" fill="#8B5CF6" font-size="12" font-family="sans-serif">Splendour in the Grass · Byron Bay</text>
  <text x="128" y="517" fill="#555555" font-size="11" font-family="sans-serif">3 weeks ago · 4:55</text>

  <!-- ── TRENDING TAGS ── -->
  <text x="20" y="554" fill="#AAAAAA" font-size="11" font-weight="600" font-family="sans-serif" letter-spacing="2">TRENDING TAGS</text>

  <!-- Tag pills row 1 -->
  <rect x="16" y="564" width="100" height="32" rx="16" fill="#161616" stroke="#8B5CF6" stroke-width="1"/>
  <text x="35" y="585" fill="#A78BFA" font-size="13" font-family="sans-serif">#laneway</text>

  <rect x="128" y="564" width="80" height="32" rx="16" fill="#161616" stroke="#333333" stroke-width="1"/>
  <text x="143" y="585" fill="#AAAAAA" font-size="13" font-family="sans-serif">#edm</text>

  <rect x="220" y="564" width="95" height="32" rx="16" fill="#161616" stroke="#333333" stroke-width="1"/>
  <text x="235" y="585" fill="#AAAAAA" font-size="13" font-family="sans-serif">#coachella</text>

  <rect x="327" y="564" width="62" height="32" rx="16" fill="#161616" stroke="#333333" stroke-width="1"/>
  <text x="342" y="585" fill="#AAAAAA" font-size="13" font-family="sans-serif">#djset</text>

  <!-- Tag pills row 2 -->
  <rect x="16" y="608" width="88" height="32" rx="16" fill="#161616" stroke="#333333" stroke-width="1"/>
  <text x="31" y="629" fill="#AAAAAA" font-size="13" font-family="sans-serif">#techno</text>

  <rect x="116" y="608" width="110" height="32" rx="16" fill="#161616" stroke="#333333" stroke-width="1"/>
  <text x="131" y="629" fill="#AAAAAA" font-size="13" font-family="sans-serif">#splendour</text>

  <rect x="238" y="608" width="80" height="32" rx="16" fill="#161616" stroke="#333333" stroke-width="1"/>
  <text x="253" y="629" fill="#AAAAAA" font-size="13" font-family="sans-serif">#rave</text>

  <rect x="330" y="608" width="60" height="32" rx="16" fill="#161616" stroke="#333333" stroke-width="1"/>
  <text x="345" y="629" fill="#AAAAAA" font-size="13" font-family="sans-serif">#live</text>

  <!-- ── BOTTOM TAB BAR ── -->
  <rect x="0" y="780" width="390" height="64" fill="#0D0D0D"/>
  <rect x="0" y="780" width="390" height="1" fill="#222222"/>

  <text x="28" y="808" font-size="18" font-family="sans-serif">🏠</text>
  <text x="22" y="832" fill="#555555" font-size="9" font-family="sans-serif" letter-spacing="0.5">HOME</text>

  <!-- Search tab (active) -->
  <text x="107" y="808" font-size="18" font-family="sans-serif">🔍</text>
  <text x="101" y="832" fill="#8B5CF6" font-size="9" font-weight="600" font-family="sans-serif" letter-spacing="0.5">SEARCH</text>
  <rect x="105" y="778" width="22" height="3" rx="1" fill="#8B5CF6"/>

  <circle cx="195" cy="800" r="26" fill="#8B5CF6"/>
  <text x="183" y="807" font-size="20" font-family="sans-serif">🙌</text>

  <text x="262" y="808" font-size="18" font-family="sans-serif">🎪</text>
  <text x="257" y="832" fill="#555555" font-size="9" font-family="sans-serif" letter-spacing="0.5">EVENTS</text>

  <text x="340" y="808" font-size="18" font-family="sans-serif">👤</text>
  <text x="333" y="832" fill="#555555" font-size="9" font-family="sans-serif" letter-spacing="0.5">PROFILE</text>

  <rect x="150" y="836" width="90" height="4" rx="2" fill="#333333"/>
</svg>
